<?xml version="1.0" standalone="no"?>
<svg xmlns="http://www.w3.org/2000/svg" viewBox="0 0 150.168 36" width="150.168" height="36"><g fill="#fe0b01" color="#fe0b01" transform="translate(0 5.320754716981131) scale(0.5283019)"><svg width="53.0" height="48.0" x="0.0" y="0.0" viewBox="0 0 53 48"><path fill="currentColor" fill-rule="evenodd" d="M14.18 0L0 8.432v16.864l14.18 8.435L24 27.846v11.72L38.181 48l14.181-8.434V22.704l-14.181-8.433-9.818 5.883V8.432L14.18 0zM4.364 22.814V10.915l9.817-5.84L24 10.915v11.853l-9.819 5.885-9.817-5.839zm23.999 14.27V25.23l9.818-5.884 9.818 5.837v11.9L38.18 42.92l-9.818-5.837z"></path></svg></g><path fill="#b81010" fill-rule="nonzero" d="M2.81 16.97L0.12 16.97Q0 16.97 0 16.85L0 16.85L0.05 0.36Q0.05 0.26 0.14 0.26L0.14 0.26L4.75 0.26Q6.96 0.26 8.24 1.61Q9.53 2.95 9.53 5.26L9.53 5.26Q9.53 6.96 8.86 8.21Q8.18 9.46 7.10 10.13Q6.02 10.80 4.75 10.80L4.75 10.80L2.93 10.80L2.93 16.85Q2.93 16.97 2.81 16.97L2.81 16.97ZM2.93 3.14L2.93 7.90L4.75 7.90Q5.52 7.90 6.08 7.16Q6.65 6.43 6.65 5.26L6.65 5.26Q6.65 4.32 6.14 3.72Q5.64 3.12 4.75 3.12L4.75 3.12L2.93 3.14ZM13.78 16.97L11.06 16.97Q10.97 16.97 10.97 16.85L10.97 16.85L11.02 0.36Q11.02 0.26 11.11 0.26L11.11 0.26L15.96 0.26Q17.26 0.26 18.35 0.90Q19.44 1.54 20.09 2.60Q20.74 3.67 20.74 5.02L20.74 5.02Q20.74 5.90 20.47 6.61Q20.21 7.32 19.85 7.81Q19.49 8.30 19.20 8.54L19.20 8.54Q20.50 9.98 20.50 11.93L20.50 11.93L20.52 16.85Q20.52 16.97 20.40 16.97L20.40 16.97L17.69 16.97Q17.59 16.97 17.59 16.90L17.59 16.90L17.59 11.93Q17.59 11.06 16.98 10.43Q16.37 9.79 15.48 9.79L15.48 9.79L13.90 9.79L13.87 16.85Q13.87 16.97 13.78 16.97L13.78 16.97ZM13.90 3.14L13.90 6.91L15.96 6.91Q16.70 6.91 17.28 6.36Q17.86 5.81 17.86 5.02L17.86 5.02Q17.86 4.25 17.29 3.70Q16.73 3.14 15.96 3.14L15.96 3.14L13.90 3.14ZM26.86 17.21L26.86 17.21Q25.56 17.21 24.49 16.55Q23.42 15.89 22.78 14.80Q22.13 13.70 22.13 12.38L22.13 12.38L22.15 4.78Q22.15 3.46 22.79 2.38Q23.42 1.30 24.50 0.65Q25.58 0 26.86 0L26.86 0Q28.15 0 29.21 0.65Q30.26 1.30 30.90 2.38Q31.54 3.46 31.54 4.78L31.54 4.78L31.56 12.38Q31.56 13.70 30.92 14.80Q30.29 15.89 29.22 16.55Q28.15 17.21 26.86 17.21ZM26.86 14.30L26.86 14.30Q27.58 14.30 28.12 13.72Q28.66 13.13 28.66 12.38L28.66 12.38L28.63 4.78Q28.63 3.98 28.13 3.43Q27.62 2.88 26.86 2.88L26.86 2.88Q26.11 2.88 25.58 3.42Q25.06 3.96 25.06 4.78L25.06 4.78L25.06 12.38Q25.06 13.18 25.58 13.74Q26.11 14.30 26.86 14.30ZM37.80 16.94L33.50 16.97Q33.38 16.97 33.38 16.85L33.38 16.85L33.43 0.36Q33.43 0.26 33.53 0.26L33.53 0.26L38.02 0.24Q39.34 0.22 40.43 0.86Q41.52 1.51 42.17 2.60Q42.82 3.70 42.82 5.02L42.82 5.02L42.82 11.90Q42.82 13.30 42.14 14.44Q41.47 15.58 40.34 16.25Q39.22 16.92 37.80 16.94L37.80 16.94ZM36.34 3.14L36.31 14.02L37.80 14.02Q38.69 14.02 39.30 13.39Q39.91 12.77 39.91 11.90L39.91 11.90L39.91 4.99Q39.91 4.22 39.35 3.66Q38.78 3.10 38.02 3.12L38.02 3.12L36.34 3.14ZM49.06 17.21L49.06 17.21Q47.78 17.21 46.70 16.55Q45.62 15.89 44.99 14.78Q44.35 13.68 44.35 12.36L44.35 12.36L44.40 0.36Q44.40 0.26 44.50 0.26L44.50 0.26L47.18 0.26Q47.28 0.26 47.28 0.36L47.28 0.36L47.28 12.36Q47.28 13.18 47.80 13.74Q48.31 14.30 49.06 14.30L49.06 14.30Q49.82 14.30 50.34 13.74Q50.86 13.18 50.86 12.36L50.86 12.36L50.86 0.36Q50.86 0.26 50.95 0.26L50.95 0.26L53.64 0.26Q53.74 0.26 53.74 0.36L53.74 0.36L53.78 12.36Q53.78 13.70 53.15 14.81Q52.51 15.91 51.44 16.56Q50.38 17.21 49.06 17.21ZM60.10 17.21L60.10 17.21Q58.78 17.21 57.71 16.55Q56.64 15.89 56.02 14.78Q55.39 13.68 55.39 12.31L55.39 12.31L55.42 4.82Q55.42 3.50 56.03 2.41Q56.64 1.32 57.71 0.66Q58.78 0 60.10 0L60.10 0Q61.42 0 62.47 0.65Q63.53 1.30 64.15 2.39Q64.78 3.48 64.78 4.82L64.78 4.82L64.78 5.93Q64.78 6.02 64.68 6.02L64.68 6.02L61.99 6.02Q61.90 6.02 61.90 5.93L61.90 5.93L61.90 4.82Q61.90 4.03 61.38 3.46Q60.86 2.88 60.10 2.88L60.10 2.88Q59.23 2.88 58.78 3.47Q58.32 4.06 58.32 4.82L58.32 4.82L58.32 12.31Q58.32 13.20 58.84 13.75Q59.35 14.30 60.10 14.30L60.10 14.30Q60.86 14.30 61.38 13.69Q61.90 13.08 61.90 12.31L61.90 12.31L61.90 11.21Q61.90 11.11 61.99 11.11L61.99 11.11L64.70 11.11Q64.80 11.11 64.80 11.21L64.80 11.21L64.80 12.31Q64.80 13.68 64.16 14.78Q63.53 15.89 62.47 16.55Q61.42 17.21 60.10 17.21ZM71.35 16.97L68.64 16.97Q68.54 16.97 68.54 16.85L68.54 16.85L68.54 3.17L65.42 3.17Q65.30 3.17 65.30 3.05L65.30 3.05L65.33 0.36Q65.33 0.26 65.42 0.26L65.42 0.26L74.54 0.26Q74.66 0.26 74.66 0.36L74.66 0.36L74.66 3.05Q74.66 3.17 74.57 3.17L74.57 3.17L71.42 3.17L71.45 16.85Q71.45 16.97 71.35 16.97L71.35 16.97ZM78.67 16.97L75.96 16.97Q75.84 16.97 75.84 16.85L75.84 16.85L75.86 0.36Q75.86 0.26 75.96 0.26L75.96 0.26L78.65 0.26Q78.74 0.26 78.74 0.36L78.74 0.36L78.77 16.85Q78.77 16.97 78.67 16.97L78.67 16.97ZM83.71 16.97L81.00 16.97Q80.88 16.97 80.88 16.85L80.88 16.85L80.90 0.36Q80.90 0.26 81.00 0.26L81.00 0.26L83.69 0.26Q83.78 0.26 83.78 0.36L83.78 0.36L83.81 16.85Q83.81 16.97 83.71 16.97L83.71 16.97ZM91.51 16.97L88.61 16.97Q88.51 16.97 88.49 16.85L88.49 16.85L85.18 0.36Q85.15 0.26 85.27 0.26L85.27 0.26L87.98 0.26Q88.08 0.26 88.10 0.36L88.10 0.36L90.07 11.35L91.99 0.36Q92.02 0.26 92.11 0.26L92.11 0.26L94.80 0.26Q94.92 0.26 94.90 0.36L94.90 0.36L91.63 16.85Q91.61 16.97 91.51 16.97L91.51 16.97ZM97.92 16.97L95.21 16.97Q95.11 16.97 95.11 16.87L95.11 16.87L95.11 14.16Q95.11 14.06 95.21 14.06L95.21 14.06L97.92 14.06Q98.02 14.06 98.02 14.16L98.02 14.16L98.02 16.87Q98.02 16.97 97.92 16.97L97.92 16.97ZM102.82 16.97L100.10 16.97Q99.98 16.97 99.98 16.85L99.98 16.85L100.01 0.36Q100.01 0.26 100.10 0.26L100.10 0.26L102.79 0.26Q102.89 0.26 102.89 0.36L102.89 0.36L102.91 16.85Q102.91 16.97 102.82 16.97L102.82 16.97ZM109.46 17.21L109.46 17.21Q108.17 17.21 107.10 16.55Q106.03 15.89 105.38 14.80Q104.74 13.70 104.74 12.38L104.74 12.38L104.76 4.78Q104.76 3.46 105.40 2.38Q106.03 1.30 107.11 0.65Q108.19 0 109.46 0L109.46 0Q110.76 0 111.82 0.65Q112.87 1.30 113.51 2.38Q114.14 3.46 114.14 4.78L114.14 4.78L114.17 12.38Q114.17 13.70 113.53 14.80Q112.90 15.89 111.83 16.55Q110.76 17.21 109.46 17.21ZM109.46 14.30L109.46 14.30Q110.18 14.30 110.72 13.72Q111.26 13.13 111.26 12.38L111.26 12.38L111.24 4.78Q111.24 3.98 110.74 3.43Q110.23 2.88 109.46 2.88L109.46 2.88Q108.72 2.88 108.19 3.42Q107.66 3.96 107.66 4.78L107.66 4.78L107.66 12.38Q107.66 13.18 108.19 13.74Q108.72 14.30 109.46 14.30Z" transform="translate(36, 9.516)"></path></svg>